<?xml version="1.0" encoding="UTF-8"?>
<svg id="Layer_2" data-name="Layer 2" xmlns="http://www.w3.org/2000/svg" viewBox="0 0 819.03 184.83">
  <defs>
    <style>
      .cls-1, .cls-2 {
        fill: #f39200;
      }

      .cls-1, .cls-3 {
        fill-rule: evenodd;
      }

      .cls-3, .cls-4 {
        fill: #005ca9;
      }
    </style>
  </defs>
  <g id="Layer_1-2" data-name="Layer 1">
    <g id="Camada_2" data-name="Camada 2">
      <g id="Camada_1" data-name="Camada 1">
        <path id="Path_9" data-name="Path 9" class="cls-2" d="M496.77,97.06l-85.35,85.35h77.85l85.4-85.35h-77.9Z"/>
        <path id="Path_10" data-name="Path 10" class="cls-1" d="M590.83,3.04l-33.78,33.78,26.28,51.58L668.69,3.04h-77.85Z"/>
        <path id="Path_11" data-name="Path 11" class="cls-4" d="M372.18,3.04l-28.45,179.34h65.15L437.33,3.04h-65.15Z"/>
        <path id="Path_12" data-name="Path 12" class="cls-3" d="M202.29,182.38h-69L224.14,3.04h72.06l35.7,179.34h-69.06l-2.46-22.37h-49.24l-8.85,22.37ZM256.45,117.53l-3.21-32.87c-.75-7.75-.42-19.43-.25-27.74h-2.68l-22.5,60.61h28.63Z"/>
        <path id="Path_13" data-name="Path 13" class="cls-3" d="M461.95,3.04l77.85-.04,43.55,85.4h-77.91L461.95,3.04Z"/>
        <path id="Path_14" data-name="Path 14" class="cls-3" d="M689.48,182.38h-68.82L711.3,3.04h72.06l35.66,179.34h-69l-2.46-22.37h-49.28l-8.81,22.37ZM743.42,117.53l-3.21-32.87c-.75-7.75-.42-19.43-.25-27.74h-2.68l-22.33,60.61h28.47Z"/>
        <path id="Path_15" data-name="Path 15" class="cls-3" d="M143.45,75.7c-8.71-10.74-21.56-17.29-35.37-18.03-20.21.52-37.3,15.08-41.03,34.95-2.86,16.22,7.98,31.68,24.2,34.54,2.22.39,4.47.53,6.72.41,14.93-.48,29.18-6.41,40.03-16.68l-12.49,67.15c-12.51,4.11-25.54,6.4-38.7,6.79h-16.37C23.57,181.2-6.5,142.92,1.2,94.31,10.28,41,55.74,1.51,109.8,0c14.52.04,28.92,2.53,42.61,7.37l-8.96,68.33Z"/>
        <path id="Path_16" data-name="Path 16" class="cls-3" d="M523.06,148.64l51.58-51.58,43.49,85.35h-77.87l-17.2-33.76Z"/>
      </g>
    </g>
  </g>
</svg>