<?xml version="1.0" encoding="UTF-8"?>
<!--
  Pilot Engineering Method — visualização SVG inspirada em IBM Design Language / Carbon.
  Substituível: troque por Pilot-Method.png se o asset original estiver disponível.
-->
<svg xmlns="http://www.w3.org/2000/svg" viewBox="0 0 1200 280" role="img" aria-label="Pilot Engineering Method: Discovery, Cocriação, Experimentação, Avaliação">
  <style>
    .label { font: 600 18px 'IBM Plex Sans', Helvetica, Arial, sans-serif; fill: #161616; }
    .num   { font: 500 12px 'IBM Plex Mono', monospace; fill: #6f6f6f; letter-spacing: 0.06em; }
    .desc  { font: 400 13px 'IBM Plex Sans', Helvetica, Arial, sans-serif; fill: #525252; }
    .rail  { stroke: #c6c6c6; stroke-width: 1; }
    .dot   { fill: #c6c6c6; }
    .active .label { fill: #161616; }
    .active .dot   { fill: #0f62fe; }
    .active .num   { fill: #0f62fe; }
    .active rect.cell { fill: #f4f4f4; stroke: #0f62fe; stroke-width: 2; }
    .accent { fill: #F9DD16; }
  </style>

  <line class="rail" x1="40" y1="80" x2="1160" y2="80"/>

  <!-- Phase 1 — Discovery (active) -->
  <g class="active" transform="translate(40,0)">
    <rect class="cell" x="0" y="20" width="260" height="220" fill="#ffffff" stroke="#e0e0e0"/>
    <circle class="dot" cx="20" cy="80" r="7"/>
    <text class="num"   x="20" y="120">01</text>
    <text class="label" x="20" y="150">Discovery</text>
    <rect class="accent" x="116" y="139" width="10" height="10"/>
    <text class="desc"  x="20" y="180">Entender problema, perfis</text>
    <text class="desc"  x="20" y="198">e sistemas. Definir caso</text>
    <text class="desc"  x="20" y="216">de uso e escopo.</text>
  </g>

  <!-- Phase 2 — Cocriação -->
  <g transform="translate(320,0)">
    <rect class="cell" x="0" y="20" width="260" height="220" fill="#ffffff" stroke="#e0e0e0"/>
    <circle class="dot" cx="20" cy="80" r="7"/>
    <text class="num"   x="20" y="120">02</text>
    <text class="label" x="20" y="150">Cocriação</text>
    <text class="desc"  x="20" y="180">Desenhar a solução</text>
    <text class="desc"  x="20" y="198">com squad mista</text>
    <text class="desc"  x="20" y="216">IBM + IBM.</text>
  </g>

  <!-- Phase 3 — Experimentação -->
  <g transform="translate(600,0)">
    <rect class="cell" x="0" y="20" width="260" height="220" fill="#ffffff" stroke="#e0e0e0"/>
    <circle class="dot" cx="20" cy="80" r="7"/>
    <text class="num"   x="20" y="120">03</text>
    <text class="label" x="20" y="150">Experimentação</text>
    <text class="desc"  x="20" y="180">Construir o piloto e</text>
    <text class="desc"  x="20" y="198">validar com usuários</text>
    <text class="desc"  x="20" y="216">reais.</text>
  </g>

  <!-- Phase 4 — Avaliação -->
  <g transform="translate(880,0)">
    <rect class="cell" x="0" y="20" width="280" height="220" fill="#ffffff" stroke="#e0e0e0"/>
    <circle class="dot" cx="20" cy="80" r="7"/>
    <text class="num"   x="20" y="120">04</text>
    <text class="label" x="20" y="150">Avaliação</text>
    <text class="desc"  x="20" y="180">Medir resultados, definir</text>
    <text class="desc"  x="20" y="198">próximos passos</text>
    <text class="desc"  x="20" y="216">e escala.</text>
  </g>
</svg>
